<svg version="1.1" xmlns="http://www.w3.org/2000/svg" xmlns:xlink="http://www.w3.org/1999/xlink">
	<symbol id="checkbox" viewBox="0 0 16 16">
    <path d="M0,4.0085302 C0,2.8992496 0.901950359,2 2.0085302,2 L9.9914698,2 C11.1007504,2 12,2.90195036 12,4.0085302 L12,11.9914698 C12,13.1007504 11.0980496,14 9.9914698,14 L2.0085302,14 C0.899249601,14 0,13.0980496 0,11.9914698 L0,4.0085302 Z M1,3.99539757 L1,12.0046024 C1,12.5443356 1.44565467,13 1.99539757,13 L10.0046024,13 C10.5443356,13 11,12.5543453 11,12.0046024 L11,3.99539757 C11,3.4556644 10.5543453,3 10.0046024,3 L1.99539757,3 C1.4556644,3 1,3.44565467 1,3.99539757 Z" fill="currentColor"></path>
  </symbol>
  <symbol id="checkbox-checked" viewBox="0 0 16 16">
    <path d="M0,4.0085302 C0,2.8992496 0.900176167,2 1.99201702,2 L11,2 L10,3 L1.99754465,3 C1.44661595,3 1,3.4556644 1,3.99539757 L1,12.0046024 C1,12.5543453 1.4556644,13 1.99539757,13 L10.0046024,13 C10.5543453,13 11,12.5424361 11,12.0064025 L11,9.5 L12,8.5 L12,11.9988153 C12,13.1040391 11.0980496,14 9.9914698,14 L2.0085302,14 C0.899249601,14 0,13.0980496 0,11.9914698 L0,4.0085302 Z" fill="currentColor"></path>
    <polygon id="checkmark" points="3.5 6 6.5 9 13.5 2 15 3.5 6.5 12 2 7.5"></polygon>
  </symbol>
  <symbol id="select-arrow" viewBox="0 0 16 16">
    <polygon fill="currentColor" id="path-1" points="8 8.5 11 5.5 12 6.5 8 10.5 4 6.5 5 5.5"></polygon>  
  </symbol>
</svg>